<?xml version="1.0" encoding="UTF-8"?><svg xmlns="http://www.w3.org/2000/svg" xmlns:xlink="http://www.w3.org/1999/xlink" viewBox="0 0 175.25 180.64"><defs><style>.cls-1,.cls-2{fill:none;}.cls-3{fill:#b2afaf;opacity:.33;}.cls-3,.cls-4,.cls-5,.cls-6,.cls-7,.cls-8,.cls-9,.cls-10,.cls-11,.cls-12,.cls-13,.cls-14,.cls-15,.cls-16,.cls-17,.cls-18,.cls-19,.cls-20,.cls-21,.cls-22,.cls-23,.cls-24,.cls-25,.cls-26,.cls-27,.cls-28,.cls-29,.cls-30,.cls-31,.cls-32,.cls-33,.cls-34,.cls-35,.cls-36,.cls-37,.cls-38,.cls-39,.cls-40,.cls-41,.cls-42,.cls-43,.cls-44,.cls-45,.cls-46,.cls-47,.cls-48,.cls-49,.cls-50,.cls-51,.cls-52,.cls-53,.cls-54{mix-blend-mode:multiply;}.cls-4{fill:#c1bebe;opacity:.25;}.cls-5{opacity:0;}.cls-5,.cls-55{fill:#fff;}.cls-6{fill:#626060;opacity:.84;}.cls-7{fill:#5d5b5b;opacity:.88;}.cls-8{fill:#a19d9d;opacity:.43;}.cls-56{fill:url(#linear-gradient-2);}.cls-9{fill:#4e4e4e;}.cls-10{fill:#f7f6f6;opacity:.02;}.cls-11{fill:#8d8989;opacity:.55;}.cls-12{fill:#6d6a6a;opacity:.76;}.cls-13{fill:#d9d7d7;opacity:.14;}.cls-14{fill:#dddbdb;opacity:.12;}.cls-15{fill:#aba7a7;opacity:.37;}.cls-16{fill:#cdcaca;opacity:.2;}.cls-17{fill:#a7a4a4;opacity:.39;}.cls-18{fill:#6a6767;opacity:.78;}.cls-2{stroke:#0f497d;stroke-miterlimit:10;stroke-width:.88px;}.cls-19{fill:#656262;opacity:.82;}.cls-20{fill:#d1cece;opacity:.18;}.cls-21{fill:#a4a0a0;opacity:.41;}.cls-22{fill:#ebeae9;opacity:.06;}.cls-57{isolation:isolate;}.cls-23{fill:#535252;opacity:.96;}.cls-24{fill:#9d9999;opacity:.45;}.cls-25{fill:#5f5d5d;opacity:.86;}.cls-26{fill:#bdbaba;opacity:.27;}.cls-27{fill:#afabab;opacity:.35;}.cls-58{fill:url(#linear-gradient);}.cls-58,.cls-59{opacity:.8;}.cls-28{fill:#b6b2b2;opacity:.31;}.cls-29{fill:#676564;opacity:.8;}.cls-30{fill:#c9c6c6;opacity:.22;}.cls-31{fill:#555454;opacity:.94;}.cls-32{fill:#7b7777;opacity:.67;}.cls-33{fill:#848080;opacity:.61;}.cls-34{fill:#505050;opacity:.98;}.cls-35{fill:#938f8f;opacity:.51;}.cls-36{fill:#6f6c6c;opacity:.75;}.cls-37{fill:#b9b6b6;opacity:.29;}.cls-38{fill:#757272;opacity:.71;}.cls-39{fill:#807d7d;opacity:.63;}.cls-40{fill:#585757;opacity:.92;}.cls-41{fill:#c5c2c2;opacity:.24;}.cls-42{fill:#908c8c;opacity:.53;}.cls-43{fill:#d5d2d2;opacity:.16;}.cls-44{fill:#787474;opacity:.69;}.cls-45{fill:#8a8686;opacity:.57;}.cls-46{fill:#878383;opacity:.59;}.cls-47{fill:#726f6f;opacity:.73;}.cls-48{fill:#e6e5e4;opacity:.08;}.cls-49{fill:#5a5959;opacity:.9;}.cls-50{fill:#f0efef;opacity:.04;}.cls-51{fill:#979393;opacity:.49;}.cls-52{fill:#7e7a7a;opacity:.65;}.cls-53{fill:#9a9696;opacity:.47;}.cls-60{clip-path:url(#clippath);}.cls-54{fill:#e2e0df;opacity:.1;}</style><clipPath id="clippath"><path class="cls-1" d="M87.46,13.07C44.7,13.07,10.04,47.74,10.04,90.5s34.66,77.42,77.42,77.42,77.42-34.66,77.42-77.42S130.22,13.07,87.46,13.07Z"/></clipPath><linearGradient id="linear-gradient" x1="32.71" y1="35.75" x2="142.21" y2="145.24" gradientUnits="userSpaceOnUse"><stop offset=".1" stop-color="#0f497d"/><stop offset=".32" stop-color="#124a7c"/><stop offset=".5" stop-color="#1c4e7b"/><stop offset=".66" stop-color="#2c5479"/><stop offset=".81" stop-color="#445e76"/><stop offset=".96" stop-color="#626972"/><stop offset="1" stop-color="#6d6e71"/></linearGradient><linearGradient id="linear-gradient-2" x1="41.94" y1="44.97" x2="132.99" y2="136.02" gradientUnits="userSpaceOnUse"><stop offset="0" stop-color="#fff"/><stop offset=".45" stop-color="#e6e7e8"/><stop offset="1" stop-color="#a7a9ac"/></linearGradient></defs><g class="cls-57"><g id="Layer_1"><g class="cls-60"><path class="cls-58" d="M87.46,13.07C44.7,13.07,10.04,47.74,10.04,90.5s34.66,77.42,77.42,77.42,77.42-34.66,77.42-77.42S130.22,13.07,87.46,13.07Z"/><g class="cls-59"><circle class="cls-5" cx="134.31" cy="142.19" r="62.53"/><circle class="cls-10" cx="133.46" cy="141.25" r="62.53"/><circle class="cls-50" cx="132.61" cy="140.32" r="62.53"/><circle class="cls-22" cx="131.76" cy="139.38" r="62.53"/><circle class="cls-48" cx="130.91" cy="138.44" r="62.53"/><circle class="cls-54" cx="130.06" cy="137.5" r="62.53"/><circle class="cls-14" cx="129.21" cy="136.56" r="62.53"/><circle class="cls-13" cx="128.36" cy="135.63" r="62.53"/><circle class="cls-43" cx="127.51" cy="134.69" r="62.53"/><circle class="cls-20" cx="126.66" cy="133.75" r="62.53"/><circle class="cls-16" cx="125.8" cy="132.81" r="62.53"/><circle class="cls-30" cx="124.95" cy="131.88" r="62.53"/><circle class="cls-41" cx="124.1" cy="130.94" r="62.53"/><circle class="cls-4" cx="123.25" cy="130" r="62.53"/><circle class="cls-26" cx="122.4" cy="129.06" r="62.53"/><circle class="cls-37" cx="121.55" cy="128.12" r="62.53"/><circle class="cls-28" cx="120.7" cy="127.19" r="62.53"/><circle class="cls-3" cx="119.85" cy="126.25" r="62.53"/><circle class="cls-27" cx="119" cy="125.31" r="62.53"/><circle class="cls-15" cx="118.15" cy="124.37" r="62.53"/><circle class="cls-17" cx="117.3" cy="123.44" r="62.53"/><circle class="cls-21" cx="116.44" cy="122.5" r="62.53"/><circle class="cls-8" cx="115.59" cy="121.56" r="62.53"/><circle class="cls-24" cx="114.74" cy="120.62" r="62.53"/><circle class="cls-53" cx="113.89" cy="119.68" r="62.53"/><circle class="cls-51" cx="113.04" cy="118.75" r="62.53"/><circle class="cls-35" cx="112.19" cy="117.81" r="62.53"/><circle class="cls-42" cx="111.34" cy="116.87" r="62.53"/><circle class="cls-11" cx="110.49" cy="115.93" r="62.53"/><circle class="cls-45" cx="109.64" cy="115" r="62.53"/><circle class="cls-46" cx="108.79" cy="114.06" r="62.53"/><circle class="cls-33" cx="107.93" cy="113.12" r="62.53"/><circle class="cls-39" cx="107.08" cy="112.18" r="62.53"/><circle class="cls-52" cx="106.23" cy="111.24" r="62.53"/><circle class="cls-32" cx="105.38" cy="110.31" r="62.53"/><circle class="cls-44" cx="104.53" cy="109.37" r="62.53"/><circle class="cls-38" cx="103.68" cy="108.43" r="62.53"/><circle class="cls-47" cx="102.83" cy="107.49" r="62.53"/><circle class="cls-36" cx="101.98" cy="106.56" r="62.53"/><circle class="cls-12" cx="101.13" cy="105.62" r="62.53"/><circle class="cls-18" cx="100.28" cy="104.68" r="62.53"/><circle class="cls-29" cx="99.43" cy="103.74" r="62.53"/><circle class="cls-19" cx="98.57" cy="102.8" r="62.53"/><circle class="cls-6" cx="97.72" cy="101.87" r="62.53"/><circle class="cls-25" cx="96.87" cy="100.93" r="62.53"/><circle class="cls-7" cx="96.02" cy="99.99" r="62.53"/><circle class="cls-49" cx="95.17" cy="99.05" r="62.53"/><circle class="cls-40" cx="94.32" cy="98.12" r="62.53"/><circle class="cls-31" cx="93.47" cy="97.18" r="62.53"/><circle class="cls-23" cx="92.62" cy="96.24" r="62.53"/><circle class="cls-34" cx="91.77" cy="95.3" r="62.53"/><circle class="cls-9" cx="90.92" cy="94.36" r="62.53"/></g><circle class="cls-56" cx="87.46" cy="90.5" r="64.38"/><circle class="cls-55" cx="87.46" cy="90.5" r="58.5"/><circle class="cls-1" cx="87.5" cy="90.5" r="64.42"/></g><path class="cls-2" d="M86.32,111.25c.72,0,1.31-.59,1.31-1.31s-.59-1.31-1.31-1.31-1.31.59-1.31,1.31.59,1.31,1.31,1.31Z"/><path class="cls-2" d="M106.01,103.37h-7.88c-.73,0-1.31.59-1.31,1.31v7.88c0,.73.59,1.31,1.31,1.31h7.88c.73,0,1.31-.59,1.31-1.31v-7.88c0-.73-.59-1.31-1.31-1.31ZM104.7,111.25h-5.25v-5.25h5.25v5.25Z"/><path class="cls-2" d="M74.5,71.85h-7.88c-.73,0-1.31.59-1.31,1.31v7.88c0,.73.59,1.31,1.31,1.31h7.88c.73,0,1.31-.59,1.31-1.31v-7.88c0-.73-.59-1.31-1.31-1.31ZM73.18,79.73h-5.25v-5.25h5.25v5.25Z"/><path class="cls-2" d="M90.26,71.85h-7.88c-.73,0-1.31.59-1.31,1.31v7.88c0,.73.59,1.31,1.31,1.31h7.88c.73,0,1.31-.59,1.31-1.31v-7.88c0-.73-.59-1.31-1.31-1.31ZM88.94,79.73h-5.25v-5.25h5.25v5.25Z"/><path class="cls-2" d="M96.82,73.17v7.88c0,.73.59,1.31,1.31,1.31h7.88c.73,0,1.31-.59,1.31-1.31v-7.88c0-.73-.59-1.31-1.31-1.31h-7.88c-.73,0-1.31.59-1.31,1.31ZM99.45,74.48h5.25v5.25h-5.25v-5.25Z"/><path class="cls-2" d="M74.5,87.61h-7.88c-.73,0-1.31.59-1.31,1.31v7.88c0,.73.59,1.31,1.31,1.31h7.88c.73,0,1.31-.59,1.31-1.31v-7.88c0-.73-.59-1.31-1.31-1.31ZM73.18,95.49h-5.25v-5.25h5.25v5.25Z"/><path class="cls-2" d="M90.26,87.61h-7.88c-.73,0-1.31.59-1.31,1.31v7.88c0,.73.59,1.31,1.31,1.31h7.88c.73,0,1.31-.59,1.31-1.31v-7.88c0-.73-.59-1.31-1.31-1.31ZM88.94,95.49h-5.25v-5.25h5.25v5.25Z"/><path class="cls-2" d="M106.01,87.61h-7.88c-.73,0-1.31.59-1.31,1.31v7.88c0,.73.59,1.31,1.31,1.31h7.88c.73,0,1.31-.59,1.31-1.31v-7.88c0-.73-.59-1.31-1.31-1.31ZM104.7,95.49h-5.25v-5.25h5.25v5.25Z"/><path class="cls-2" d="M74.5,103.37h-7.88c-.73,0-1.31.59-1.31,1.31v7.88c0,.73.59,1.31,1.31,1.31h7.88c.73,0,1.31-.59,1.31-1.31v-7.88c0-.73-.59-1.31-1.31-1.31ZM73.18,111.25h-5.25v-5.25h5.25v5.25Z"/><path class="cls-2" d="M103.39,55.31h-34.14c-.73,0-1.31.59-1.31,1.31v7.35h-6.57c-.73,0-1.31.59-1.31,1.31v54.63h-3.94c-.73,0-1.31.59-1.31,1.31s.59,1.31,1.31,1.31h60.41c.73,0,1.31-.59,1.31-1.31s-.59-1.31-1.31-1.31h-3.94v-54.63c0-.73-.59-1.31-1.31-1.31h-6.57v-7.35c0-.73-.59-1.31-1.31-1.31ZM70.56,57.93h31.52v6.04h-31.52v-6.04ZM91.57,119.92h-3.94v-4.73c0-.73-.59-1.31-1.31-1.31s-1.31.59-1.31,1.31v4.73h-3.94v-13.92h10.51v13.92ZM109.95,119.92h-15.76v-15.23c0-.73-.59-1.31-1.31-1.31h-13.13c-.73,0-1.31.59-1.31,1.31v15.23h-15.76v-53.31h47.27v53.31Z"/></g></g></svg>