<?xml version="1.0" encoding="UTF-8"?><svg xmlns="http://www.w3.org/2000/svg" xmlns:xlink="http://www.w3.org/1999/xlink" viewBox="0 0 175.25 180.64"><defs><style>.cls-1{fill:none;}.cls-2{fill:#b2afaf;opacity:.33;}.cls-2,.cls-3,.cls-4,.cls-5,.cls-6,.cls-7,.cls-8,.cls-9,.cls-10,.cls-11,.cls-12,.cls-13,.cls-14,.cls-15,.cls-16,.cls-17,.cls-18,.cls-19,.cls-20,.cls-21,.cls-22,.cls-23,.cls-24,.cls-25,.cls-26,.cls-27,.cls-28,.cls-29,.cls-30,.cls-31,.cls-32,.cls-33,.cls-34,.cls-35,.cls-36,.cls-37,.cls-38,.cls-39,.cls-40,.cls-41,.cls-42,.cls-43,.cls-44,.cls-45,.cls-46,.cls-47,.cls-48,.cls-49,.cls-50,.cls-51,.cls-52,.cls-53{mix-blend-mode:multiply;}.cls-3{fill:#c1bebe;opacity:.25;}.cls-4{opacity:0;}.cls-4,.cls-54{fill:#fff;}.cls-5{fill:#626060;opacity:.84;}.cls-6{fill:#5d5b5b;opacity:.88;}.cls-7{fill:#a19d9d;opacity:.43;}.cls-55{fill:url(#linear-gradient-2);}.cls-8{fill:#4e4e4e;}.cls-9{fill:#f7f6f6;opacity:.02;}.cls-10{fill:#8d8989;opacity:.55;}.cls-11{fill:#6d6a6a;opacity:.76;}.cls-12{fill:#d9d7d7;opacity:.14;}.cls-13{fill:#dddbdb;opacity:.12;}.cls-14{fill:#aba7a7;opacity:.37;}.cls-15{fill:#cdcaca;opacity:.2;}.cls-16{fill:#a7a4a4;opacity:.39;}.cls-17{fill:#6a6767;opacity:.78;}.cls-18{fill:#656262;opacity:.82;}.cls-19{fill:#d1cece;opacity:.18;}.cls-20{fill:#a4a0a0;opacity:.41;}.cls-21{fill:#ebeae9;opacity:.06;}.cls-56{isolation:isolate;}.cls-22{fill:#535252;opacity:.96;}.cls-23{fill:#9d9999;opacity:.45;}.cls-24{fill:#5f5d5d;opacity:.86;}.cls-25{fill:#bdbaba;opacity:.27;}.cls-26{fill:#afabab;opacity:.35;}.cls-57{fill:url(#linear-gradient);}.cls-57,.cls-58{opacity:.8;}.cls-27{fill:#b6b2b2;opacity:.31;}.cls-28{fill:#676564;opacity:.8;}.cls-29{fill:#c9c6c6;opacity:.22;}.cls-30{fill:#555454;opacity:.94;}.cls-31{fill:#7b7777;opacity:.67;}.cls-32{fill:#848080;opacity:.61;}.cls-33{fill:#505050;opacity:.98;}.cls-34{fill:#938f8f;opacity:.51;}.cls-35{fill:#6f6c6c;opacity:.75;}.cls-36{fill:#b9b6b6;opacity:.29;}.cls-37{fill:#757272;opacity:.71;}.cls-38{fill:#807d7d;opacity:.63;}.cls-39{fill:#585757;opacity:.92;}.cls-59{fill:#0f497d;}.cls-40{fill:#c5c2c2;opacity:.24;}.cls-41{fill:#908c8c;opacity:.53;}.cls-42{fill:#d5d2d2;opacity:.16;}.cls-43{fill:#787474;opacity:.69;}.cls-44{fill:#8a8686;opacity:.57;}.cls-45{fill:#878383;opacity:.59;}.cls-46{fill:#726f6f;opacity:.73;}.cls-47{fill:#e6e5e4;opacity:.08;}.cls-48{fill:#5a5959;opacity:.9;}.cls-49{fill:#f0efef;opacity:.04;}.cls-50{fill:#979393;opacity:.49;}.cls-51{fill:#7e7a7a;opacity:.65;}.cls-52{fill:#9a9696;opacity:.47;}.cls-60{clip-path:url(#clippath);}.cls-53{fill:#e2e0df;opacity:.1;}</style><clipPath id="clippath"><path class="cls-1" d="M87.81,12.35C45.05,12.35,10.38,47.02,10.38,89.78s34.66,77.42,77.42,77.42,77.42-34.66,77.42-77.42S130.57,12.35,87.81,12.35Z"/></clipPath><linearGradient id="linear-gradient" x1="33.06" y1="35.03" x2="142.55" y2="144.52" gradientUnits="userSpaceOnUse"><stop offset=".1" stop-color="#0f497d"/><stop offset=".32" stop-color="#124a7c"/><stop offset=".5" stop-color="#1c4e7b"/><stop offset=".66" stop-color="#2c5479"/><stop offset=".81" stop-color="#445e76"/><stop offset=".96" stop-color="#626972"/><stop offset="1" stop-color="#6d6e71"/></linearGradient><linearGradient id="linear-gradient-2" x1="42.28" y1="44.25" x2="133.33" y2="135.3" gradientUnits="userSpaceOnUse"><stop offset="0" stop-color="#fff"/><stop offset=".45" stop-color="#e6e7e8"/><stop offset="1" stop-color="#a7a9ac"/></linearGradient></defs><g class="cls-56"><g id="Layer_1"><g class="cls-60"><path class="cls-57" d="M87.81,12.35C45.05,12.35,10.38,47.02,10.38,89.78s34.66,77.42,77.42,77.42,77.42-34.66,77.42-77.42S130.57,12.35,87.81,12.35Z"/><g class="cls-58"><circle class="cls-4" cx="134.66" cy="141.47" r="62.53"/><circle class="cls-9" cx="133.81" cy="140.53" r="62.53"/><circle class="cls-49" cx="132.96" cy="139.6" r="62.53"/><circle class="cls-21" cx="132.11" cy="138.66" r="62.53"/><circle class="cls-47" cx="131.26" cy="137.72" r="62.53"/><circle class="cls-53" cx="130.4" cy="136.78" r="62.53"/><circle class="cls-13" cx="129.55" cy="135.84" r="62.53"/><circle class="cls-12" cx="128.7" cy="134.91" r="62.53"/><circle class="cls-42" cx="127.85" cy="133.97" r="62.53"/><circle class="cls-19" cx="127" cy="133.03" r="62.53"/><circle class="cls-15" cx="126.15" cy="132.09" r="62.53"/><circle class="cls-29" cx="125.3" cy="131.16" r="62.53"/><circle class="cls-40" cx="124.45" cy="130.22" r="62.53"/><circle class="cls-3" cx="123.6" cy="129.28" r="62.53"/><circle class="cls-25" cx="122.75" cy="128.34" r="62.53"/><circle class="cls-36" cx="121.9" cy="127.4" r="62.53"/><circle class="cls-27" cx="121.04" cy="126.47" r="62.53"/><circle class="cls-2" cx="120.19" cy="125.53" r="62.53"/><circle class="cls-26" cx="119.34" cy="124.59" r="62.53"/><circle class="cls-14" cx="118.49" cy="123.65" r="62.53"/><circle class="cls-16" cx="117.64" cy="122.72" r="62.53"/><circle class="cls-20" cx="116.79" cy="121.78" r="62.53"/><circle class="cls-7" cx="115.94" cy="120.84" r="62.53"/><circle class="cls-23" cx="115.09" cy="119.9" r="62.53"/><circle class="cls-52" cx="114.24" cy="118.96" r="62.53"/><circle class="cls-50" cx="113.39" cy="118.03" r="62.53"/><circle class="cls-34" cx="112.53" cy="117.09" r="62.53"/><circle class="cls-41" cx="111.68" cy="116.15" r="62.53"/><circle class="cls-10" cx="110.83" cy="115.21" r="62.53"/><circle class="cls-44" cx="109.98" cy="114.28" r="62.53"/><circle class="cls-45" cx="109.13" cy="113.34" r="62.53"/><circle class="cls-32" cx="108.28" cy="112.4" r="62.53"/><circle class="cls-38" cx="107.43" cy="111.46" r="62.53"/><circle class="cls-51" cx="106.58" cy="110.52" r="62.53"/><circle class="cls-31" cx="105.73" cy="109.59" r="62.53"/><circle class="cls-43" cx="104.88" cy="108.65" r="62.53"/><circle class="cls-37" cx="104.03" cy="107.71" r="62.53"/><circle class="cls-46" cx="103.17" cy="106.77" r="62.53"/><circle class="cls-35" cx="102.32" cy="105.84" r="62.53"/><circle class="cls-11" cx="101.47" cy="104.9" r="62.53"/><circle class="cls-17" cx="100.62" cy="103.96" r="62.53"/><circle class="cls-28" cx="99.77" cy="103.02" r="62.53"/><circle class="cls-18" cx="98.92" cy="102.08" r="62.53"/><circle class="cls-5" cx="98.07" cy="101.15" r="62.53"/><circle class="cls-24" cx="97.22" cy="100.21" r="62.53"/><circle class="cls-6" cx="96.37" cy="99.27" r="62.53"/><circle class="cls-48" cx="95.52" cy="98.33" r="62.53"/><circle class="cls-39" cx="94.66" cy="97.4" r="62.53"/><circle class="cls-30" cx="93.81" cy="96.46" r="62.53"/><circle class="cls-22" cx="92.96" cy="95.52" r="62.53"/><circle class="cls-33" cx="92.11" cy="94.58" r="62.53"/><circle class="cls-8" cx="91.26" cy="93.64" r="62.53"/></g><circle class="cls-55" cx="87.81" cy="89.78" r="64.38"/><circle class="cls-54" cx="87.81" cy="89.78" r="58.5"/><circle class="cls-1" cx="87.84" cy="89.78" r="64.42"/></g><path class="cls-59" d="M112.68,71.08c.19-.84.28-1.69.28-2.55.01-6.53-5.28-11.83-11.81-11.84-2.52,0-4.98.8-7.02,2.29-6.58-7.27-17.8-7.84-25.08-1.26-3.72,3.37-5.85,8.16-5.85,13.18v.22c-7.07,1.32-11.74,8.12-10.42,15.19,1.15,6.16,6.52,10.63,12.79,10.64h45.01c7.2-.03,13-5.89,12.97-13.08-.03-6.35-4.62-11.75-10.88-12.8ZM110.6,94.59h-45.01c-5.89-.03-10.64-4.82-10.61-10.71.03-5.46,4.17-10.01,9.6-10.56.63-.06,1.1-.61,1.07-1.24l-.02-.33c-.01-.28-.03-.56-.03-.84,0-8.5,6.88-15.39,15.37-15.4,4.72,0,9.18,2.16,12.1,5.87.41.51,1.15.6,1.66.19.02-.02.04-.03.06-.05,3.87-3.51,9.85-3.21,13.36.66,1.58,1.74,2.45,4.01,2.45,6.37,0,1.08-.19,2.16-.56,3.17-.22.62.1,1.29.71,1.52.11.04.23.06.35.07,5.88.37,10.34,5.43,9.97,11.31-.35,5.55-4.91,9.9-10.47,9.99Z"/><path class="cls-59" d="M81.23,115.01c-.43.9-.3,1.96.34,2.72l4.56,5.54c.89,1.08,2.49,1.24,3.57.35.13-.1.24-.22.35-.35l4.56-5.54c.9-1.09.74-2.71-.35-3.6-.41-.33-.91-.54-1.43-.58v-10.67c0-1.31-1.06-2.37-2.37-2.37h-4.74c-1.31,0-2.37,1.06-2.37,2.37v10.67c-.92.06-1.73.62-2.12,1.46ZM83.53,115.91h1.01c.65,0,1.18-.53,1.18-1.18v-11.84h4.74v11.84c0,.65.53,1.18,1.18,1.18h1.02c.07,0,.13.04.15.1.04.07.03.15-.02.21h0l-4.56,5.54c-.06.07-.16.08-.23.02,0,0-.02-.01-.02-.02l-4.57-5.55c-.05-.06-.06-.14-.02-.21.02-.06.08-.1.15-.1Z"/><path class="cls-59" d="M61.1,113.82c-.43.9-.3,1.96.34,2.72l4.56,5.54c.89,1.08,2.49,1.24,3.57.35.13-.1.24-.22.35-.35l4.56-5.54c.9-1.09.74-2.71-.35-3.6-.41-.33-.91-.54-1.43-.58v-10.67c0-1.31-1.06-2.37-2.37-2.37h-4.74c-1.31,0-2.37,1.06-2.37,2.37v10.67c-.92.06-1.73.62-2.12,1.46ZM63.4,114.72h1.01c.65,0,1.18-.53,1.18-1.18v-11.84h4.74v11.84c0,.65.53,1.18,1.18,1.18h1.02c.07,0,.13.04.15.1.04.07.03.15-.02.21h0l-4.56,5.54c-.06.07-.16.08-.23.02,0,0-.02-.01-.02-.02l-4.57-5.54c-.05-.06-.06-.14-.02-.21.02-.07.09-.11.16-.11Z"/><path class="cls-59" d="M101.37,113.82c-.43.9-.3,1.96.34,2.72l4.56,5.54c.89,1.08,2.49,1.24,3.57.35.13-.1.24-.22.35-.35l4.56-5.54c.64-.76.77-1.83.34-2.72-.39-.84-1.2-1.4-2.12-1.46v-10.67c0-1.31-1.06-2.37-2.37-2.37h-4.74c-1.31,0-2.37,1.06-2.37,2.37v10.67c-.92.06-1.73.62-2.12,1.46ZM103.51,114.83c.02-.07.09-.11.16-.11h1.01c.65,0,1.18-.53,1.18-1.18v-11.84h4.74v11.84c0,.65.53,1.18,1.18,1.18h1.02c.07,0,.13.04.15.1.04.07.03.15-.02.21h0l-4.56,5.54c-.06.07-.16.08-.23.02,0,0-.02-.01-.02-.02l-4.56-5.54c-.05-.05-.07-.14-.03-.2Z"/><path class="cls-59" d="M77.43,73.27c1.31,0,2.37,1.06,2.37,2.37,0,.65.53,1.18,1.18,1.18s1.18-.53,1.18-1.18c0-2.62-2.12-4.74-4.74-4.74s-4.74,2.12-4.74,4.74v7.11c0,2.62,2.12,4.74,4.74,4.74s4.74-2.12,4.74-4.74c0-.65-.53-1.18-1.18-1.18s-1.18.53-1.18,1.18c0,1.31-1.06,2.37-2.37,2.37s-2.37-1.06-2.37-2.37v-7.11c0-1.31,1.06-2.37,2.37-2.37Z"/><path class="cls-59" d="M89.28,70.9c-2.62,0-4.74,2.12-4.74,4.74v7.11c0,2.62,2.12,4.74,4.74,4.74s4.74-2.12,4.74-4.74v-7.11c0-2.62-2.12-4.74-4.74-4.74ZM91.65,82.75c0,1.31-1.06,2.37-2.37,2.37s-2.37-1.06-2.37-2.37v-7.11c0-1.31,1.06-2.37,2.37-2.37s2.37,1.06,2.37,2.37v7.11Z"/><path class="cls-59" d="M103.49,79.19c0-1.96-1.59-3.55-3.55-3.55-1.53,0-2.9.92-3.47,2.34-.23.6.07,1.28.66,1.51.6.24,1.29-.05,1.54-.64.22-.51.72-.84,1.27-.84.65,0,1.18.53,1.18,1.18,0,1.41-1.12,2.38-2.32,3.41s-2.42,2.09-2.42,3.7c0,.65.53,1.18,1.18,1.18h4.74c.65,0,1.18-.53,1.18-1.18s-.53-1.18-1.18-1.18h-2.76c.25-.24.53-.47.81-.72,1.4-1.21,3.14-2.71,3.14-5.2Z"/></g></g></svg>