<?xml version="1.0" encoding="UTF-8"?><svg xmlns="http://www.w3.org/2000/svg" xmlns:xlink="http://www.w3.org/1999/xlink" viewBox="0 0 175.25 180.64"><defs><style>.cls-1{fill:none;}.cls-2{fill:#b2afaf;opacity:.33;}.cls-2,.cls-3,.cls-4,.cls-5,.cls-6,.cls-7,.cls-8,.cls-9,.cls-10,.cls-11,.cls-12,.cls-13,.cls-14,.cls-15,.cls-16,.cls-17,.cls-18,.cls-19,.cls-20,.cls-21,.cls-22,.cls-23,.cls-24,.cls-25,.cls-26,.cls-27,.cls-28,.cls-29,.cls-30,.cls-31,.cls-32,.cls-33,.cls-34,.cls-35,.cls-36,.cls-37,.cls-38,.cls-39,.cls-40,.cls-41,.cls-42,.cls-43,.cls-44,.cls-45,.cls-46,.cls-47,.cls-48,.cls-49,.cls-50,.cls-51,.cls-52,.cls-53{mix-blend-mode:multiply;}.cls-3{fill:#c1bebe;opacity:.25;}.cls-4{opacity:0;}.cls-4,.cls-54{fill:#fff;}.cls-5{fill:#626060;opacity:.84;}.cls-6{fill:#5d5b5b;opacity:.88;}.cls-7{fill:#a19d9d;opacity:.43;}.cls-55{fill:url(#linear-gradient-2);}.cls-8{fill:#4e4e4e;}.cls-9{fill:#f7f6f6;opacity:.02;}.cls-10{fill:#8d8989;opacity:.55;}.cls-11{fill:#6d6a6a;opacity:.76;}.cls-12{fill:#d9d7d7;opacity:.14;}.cls-13{fill:#dddbdb;opacity:.12;}.cls-14{fill:#aba7a7;opacity:.37;}.cls-15{fill:#cdcaca;opacity:.2;}.cls-16{fill:#a7a4a4;opacity:.39;}.cls-17{fill:#6a6767;opacity:.78;}.cls-18{fill:#656262;opacity:.82;}.cls-19{fill:#d1cece;opacity:.18;}.cls-20{fill:#a4a0a0;opacity:.41;}.cls-21{fill:#ebeae9;opacity:.06;}.cls-56{isolation:isolate;}.cls-22{fill:#535252;opacity:.96;}.cls-23{fill:#9d9999;opacity:.45;}.cls-24{fill:#5f5d5d;opacity:.86;}.cls-25{fill:#bdbaba;opacity:.27;}.cls-26{fill:#afabab;opacity:.35;}.cls-57{fill:url(#linear-gradient);}.cls-57,.cls-58{opacity:.8;}.cls-27{fill:#b6b2b2;opacity:.31;}.cls-28{fill:#676564;opacity:.8;}.cls-29{fill:#c9c6c6;opacity:.22;}.cls-30{fill:#555454;opacity:.94;}.cls-31{fill:#7b7777;opacity:.67;}.cls-32{fill:#848080;opacity:.61;}.cls-33{fill:#505050;opacity:.98;}.cls-34{fill:#938f8f;opacity:.51;}.cls-35{fill:#6f6c6c;opacity:.75;}.cls-36{fill:#b9b6b6;opacity:.29;}.cls-37{fill:#757272;opacity:.71;}.cls-38{fill:#807d7d;opacity:.63;}.cls-39{fill:#585757;opacity:.92;}.cls-59{fill:#0f497d;}.cls-40{fill:#c5c2c2;opacity:.24;}.cls-41{fill:#908c8c;opacity:.53;}.cls-42{fill:#d5d2d2;opacity:.16;}.cls-43{fill:#787474;opacity:.69;}.cls-44{fill:#8a8686;opacity:.57;}.cls-45{fill:#878383;opacity:.59;}.cls-46{fill:#726f6f;opacity:.73;}.cls-47{fill:#e6e5e4;opacity:.08;}.cls-48{fill:#5a5959;opacity:.9;}.cls-49{fill:#f0efef;opacity:.04;}.cls-50{fill:#979393;opacity:.49;}.cls-51{fill:#7e7a7a;opacity:.65;}.cls-52{fill:#9a9696;opacity:.47;}.cls-60{clip-path:url(#clippath);}.cls-53{fill:#e2e0df;opacity:.1;}</style><clipPath id="clippath"><path class="cls-1" d="M87.29,13.07C44.53,13.07,9.87,47.74,9.87,90.5s34.66,77.42,77.42,77.42,77.42-34.66,77.42-77.42S130.05,13.07,87.29,13.07Z"/></clipPath><linearGradient id="linear-gradient" x1="32.54" y1="35.75" x2="142.04" y2="145.24" gradientUnits="userSpaceOnUse"><stop offset=".1" stop-color="#0f497d"/><stop offset=".32" stop-color="#124a7c"/><stop offset=".5" stop-color="#1c4e7b"/><stop offset=".66" stop-color="#2c5479"/><stop offset=".81" stop-color="#445e76"/><stop offset=".96" stop-color="#626972"/><stop offset="1" stop-color="#6d6e71"/></linearGradient><linearGradient id="linear-gradient-2" x1="41.76" y1="44.97" x2="132.81" y2="136.02" gradientUnits="userSpaceOnUse"><stop offset="0" stop-color="#fff"/><stop offset=".45" stop-color="#e6e7e8"/><stop offset="1" stop-color="#a7a9ac"/></linearGradient></defs><g class="cls-56"><g id="Layer_1"><g class="cls-60"><path class="cls-57" d="M87.29,13.07C44.53,13.07,9.87,47.74,9.87,90.5s34.66,77.42,77.42,77.42,77.42-34.66,77.42-77.42S130.05,13.07,87.29,13.07Z"/><g class="cls-58"><circle class="cls-4" cx="134.14" cy="142.19" r="62.53"/><circle class="cls-9" cx="133.29" cy="141.25" r="62.53"/><circle class="cls-49" cx="132.44" cy="140.32" r="62.53"/><circle class="cls-21" cx="131.59" cy="139.38" r="62.53"/><circle class="cls-47" cx="130.74" cy="138.44" r="62.53"/><circle class="cls-53" cx="129.89" cy="137.5" r="62.53"/><circle class="cls-13" cx="129.04" cy="136.56" r="62.53"/><circle class="cls-12" cx="128.19" cy="135.63" r="62.53"/><circle class="cls-42" cx="127.33" cy="134.69" r="62.53"/><circle class="cls-19" cx="126.48" cy="133.75" r="62.53"/><circle class="cls-15" cx="125.63" cy="132.81" r="62.53"/><circle class="cls-29" cx="124.78" cy="131.88" r="62.53"/><circle class="cls-40" cx="123.93" cy="130.94" r="62.53"/><circle class="cls-3" cx="123.08" cy="130" r="62.53"/><circle class="cls-25" cx="122.23" cy="129.06" r="62.53"/><circle class="cls-36" cx="121.38" cy="128.12" r="62.53"/><circle class="cls-27" cx="120.53" cy="127.19" r="62.53"/><circle class="cls-2" cx="119.68" cy="126.25" r="62.53"/><circle class="cls-26" cx="118.82" cy="125.31" r="62.53"/><circle class="cls-14" cx="117.97" cy="124.37" r="62.53"/><circle class="cls-16" cx="117.12" cy="123.44" r="62.53"/><circle class="cls-20" cx="116.27" cy="122.5" r="62.53"/><circle class="cls-7" cx="115.42" cy="121.56" r="62.53"/><circle class="cls-23" cx="114.57" cy="120.62" r="62.53"/><circle class="cls-52" cx="113.72" cy="119.68" r="62.53"/><circle class="cls-50" cx="112.87" cy="118.75" r="62.53"/><circle class="cls-34" cx="112.02" cy="117.81" r="62.53"/><circle class="cls-41" cx="111.17" cy="116.87" r="62.53"/><circle class="cls-10" cx="110.32" cy="115.93" r="62.53"/><circle class="cls-44" cx="109.46" cy="115" r="62.53"/><circle class="cls-45" cx="108.61" cy="114.06" r="62.53"/><circle class="cls-32" cx="107.76" cy="113.12" r="62.53"/><circle class="cls-38" cx="106.91" cy="112.18" r="62.53"/><circle class="cls-51" cx="106.06" cy="111.24" r="62.53"/><circle class="cls-31" cx="105.21" cy="110.31" r="62.53"/><circle class="cls-43" cx="104.36" cy="109.37" r="62.53"/><circle class="cls-37" cx="103.51" cy="108.43" r="62.53"/><circle class="cls-46" cx="102.66" cy="107.49" r="62.53"/><circle class="cls-35" cx="101.81" cy="106.56" r="62.53"/><circle class="cls-11" cx="100.95" cy="105.62" r="62.53"/><circle class="cls-17" cx="100.1" cy="104.68" r="62.53"/><circle class="cls-28" cx="99.25" cy="103.74" r="62.53"/><circle class="cls-18" cx="98.4" cy="102.8" r="62.53"/><circle class="cls-5" cx="97.55" cy="101.87" r="62.53"/><circle class="cls-24" cx="96.7" cy="100.93" r="62.53"/><circle class="cls-6" cx="95.85" cy="99.99" r="62.53"/><circle class="cls-48" cx="95" cy="99.05" r="62.53"/><circle class="cls-39" cx="94.15" cy="98.12" r="62.53"/><circle class="cls-30" cx="93.3" cy="97.18" r="62.53"/><circle class="cls-22" cx="92.45" cy="96.24" r="62.53"/><circle class="cls-33" cx="91.59" cy="95.3" r="62.53"/><circle class="cls-8" cx="90.74" cy="94.36" r="62.53"/></g><circle class="cls-55" cx="87.29" cy="90.5" r="64.38"/><circle class="cls-54" cx="87.29" cy="90.5" r="58.5"/><circle class="cls-1" cx="87.33" cy="90.5" r="64.42"/></g><path class="cls-59" d="M63.6,71.71c4.18,0,7.57-3.39,7.57-7.57,0-4.18-3.39-7.57-7.57-7.57-4.18,0-7.57,3.39-7.57,7.57,0,4.18,3.39,7.56,7.57,7.57ZM63.6,59.01c2.84,0,5.14,2.3,5.14,5.14,0,2.84-2.3,5.14-5.14,5.14-2.84,0-5.14-2.3-5.14-5.14,0-2.84,2.3-5.14,5.14-5.14Z"/><path class="cls-59" d="M63.6,55.19c.67,0,1.21-.54,1.21-1.21v-3.18c0-.67-.54-1.21-1.21-1.21s-1.21.54-1.21,1.21v3.18c0,.67.54,1.21,1.21,1.21Z"/><path class="cls-59" d="M70.79,58.17c.32,0,.63-.13.86-.36l2.25-2.25c.47-.47.47-1.24,0-1.72-.47-.47-1.24-.47-1.72,0l-2.25,2.25c-.47.47-.47,1.24,0,1.72.23.23.54.36.86.36Z"/><path class="cls-59" d="M72.56,64.15c0,.67.54,1.21,1.21,1.21h3.18c.67,0,1.21-.54,1.21-1.21s-.54-1.21-1.21-1.21h-3.18c-.67,0-1.21.54-1.21,1.21Z"/><path class="cls-59" d="M69.93,70.48c-.47.47-.47,1.24,0,1.71h0s2.25,2.25,2.25,2.25c.47.47,1.24.47,1.72,0,.47-.47.47-1.24,0-1.72l-2.25-2.25c-.47-.47-1.24-.47-1.72,0Z"/><path class="cls-59" d="M62.39,74.31v3.18c0,.67.54,1.21,1.21,1.21s1.21-.54,1.21-1.21v-3.18c0-.67-.54-1.21-1.21-1.21s-1.21.54-1.21,1.21Z"/><path class="cls-59" d="M57.27,70.48c-.47-.47-1.24-.47-1.72,0l-2.25,2.25c-.47.47-.47,1.24,0,1.72s1.24.47,1.72,0l2.25-2.25c.47-.47.47-1.24,0-1.71,0,0,0,0,0,0Z"/><path class="cls-59" d="M54.65,64.15c0-.67-.54-1.21-1.21-1.21h-3.18c-.67,0-1.21.54-1.21,1.21s.54,1.21,1.21,1.21h3.18c.67,0,1.21-.54,1.21-1.21Z"/><path class="cls-59" d="M55.55,57.82c.48.47,1.25.46,1.72-.01.47-.47.47-1.23,0-1.7l-2.25-2.25c-.47-.47-1.24-.47-1.72,0s-.47,1.24,0,1.72l2.25,2.25Z"/><path class="cls-59" d="M121.79,105.09l-8.02-30.93c-.42-1.61-1.87-2.73-3.53-2.73h-32.01c-.67,0-1.21.54-1.21,1.21s.54,1.21,1.21,1.21h8.41v8.49h-10.7l.62-3.75c.1-.66-.35-1.28-1.01-1.39-.65-.1-1.27.34-1.38.99l-.69,4.15h-9.94l.1-.39c.18-.64-.19-1.31-.84-1.5-.64-.18-1.31.19-1.5.84,0,.02,0,.03-.01.05l-.5,1.92s-.01.04-.02.06l-5.64,21.76s0,.02,0,.03c0,.01,0,.03-.01.04-.02.08-.03.16-.02.24v4.85c0,.67.54,1.21,1.21,1.21h25.48v3.64h-6.67c-.67,0-1.21.54-1.21,1.21v4.85c0,.67.54,1.21,1.21,1.21h25.48c.67,0,1.21-.54,1.21-1.21v-4.85c0-.67-.54-1.21-1.21-1.21h-6.67v-3.64h26.69c.67,0,1.21-.54,1.21-1.21v-4.85c0-.1-.01-.21-.04-.3ZM72.31,104.18l1.42-8.49h12.92v8.49h-14.34ZM57.89,104.18l2.2-8.49h11.18l-1.42,8.49h-11.96ZM89.08,95.69h14.14l1.42,8.49h-15.55v-8.49ZM116.22,93.26h-10.95l-1.42-8.49h10.17l2.2,8.49ZM102.81,93.26h-13.73v-8.49h12.32l1.42,8.49ZM107.09,104.18l-1.42-8.49h11.18l2.2,8.49h-11.96ZM111.43,74.76l1.96,7.58h-9.94l-1.42-8.49h8.21c.55,0,1.04.37,1.18.91ZM89.08,73.85h10.5l1.42,8.49h-11.91v-8.49ZM86.65,84.77v8.49h-12.52l1.42-8.49h11.1ZM73.09,84.77l-1.42,8.49h-10.95l2.2-8.49h10.16ZM99.39,119.95h-23.05v-2.43h23.05v2.43ZM91.5,115.1h-7.28v-3.64h7.28v3.64ZM57.54,109.03v-2.43h61.87v2.43h-61.87Z"/></g></g></svg>