<?xml version="1.0" encoding="UTF-8"?><svg xmlns="http://www.w3.org/2000/svg" xmlns:xlink="http://www.w3.org/1999/xlink" viewBox="0 0 175.25 180.64"><defs><style>.cls-1{fill:none;}.cls-2{fill:#b2afaf;opacity:.33;}.cls-2,.cls-3,.cls-4,.cls-5,.cls-6,.cls-7,.cls-8,.cls-9,.cls-10,.cls-11,.cls-12,.cls-13,.cls-14,.cls-15,.cls-16,.cls-17,.cls-18,.cls-19,.cls-20,.cls-21,.cls-22,.cls-23,.cls-24,.cls-25,.cls-26,.cls-27,.cls-28,.cls-29,.cls-30,.cls-31,.cls-32,.cls-33,.cls-34,.cls-35,.cls-36,.cls-37,.cls-38,.cls-39,.cls-40,.cls-41,.cls-42,.cls-43,.cls-44,.cls-45,.cls-46,.cls-47,.cls-48,.cls-49,.cls-50,.cls-51,.cls-52,.cls-53{mix-blend-mode:multiply;}.cls-3{fill:#c1bebe;opacity:.25;}.cls-4{opacity:0;}.cls-4,.cls-54{fill:#fff;}.cls-5{fill:#626060;opacity:.84;}.cls-6{fill:#5d5b5b;opacity:.88;}.cls-7{fill:#a19d9d;opacity:.43;}.cls-55{fill:url(#linear-gradient-2);}.cls-8{fill:#4e4e4e;}.cls-9{fill:#f7f6f6;opacity:.02;}.cls-10{fill:#8d8989;opacity:.55;}.cls-11{fill:#6d6a6a;opacity:.76;}.cls-12{fill:#d9d7d7;opacity:.14;}.cls-13{fill:#dddbdb;opacity:.12;}.cls-14{fill:#aba7a7;opacity:.37;}.cls-15{fill:#cdcaca;opacity:.2;}.cls-16{fill:#a7a4a4;opacity:.39;}.cls-17{fill:#6a6767;opacity:.78;}.cls-18{fill:#656262;opacity:.82;}.cls-19{fill:#d1cece;opacity:.18;}.cls-20{fill:#a4a0a0;opacity:.41;}.cls-21{fill:#ebeae9;opacity:.06;}.cls-56{isolation:isolate;}.cls-22{fill:#535252;opacity:.96;}.cls-23{fill:#9d9999;opacity:.45;}.cls-24{fill:#5f5d5d;opacity:.86;}.cls-25{fill:#bdbaba;opacity:.27;}.cls-26{fill:#afabab;opacity:.35;}.cls-57{fill:url(#linear-gradient);}.cls-57,.cls-58{opacity:.8;}.cls-27{fill:#b6b2b2;opacity:.31;}.cls-28{fill:#676564;opacity:.8;}.cls-29{fill:#c9c6c6;opacity:.22;}.cls-30{fill:#555454;opacity:.94;}.cls-31{fill:#7b7777;opacity:.67;}.cls-32{fill:#848080;opacity:.61;}.cls-33{fill:#505050;opacity:.98;}.cls-34{fill:#938f8f;opacity:.51;}.cls-35{fill:#6f6c6c;opacity:.75;}.cls-36{fill:#b9b6b6;opacity:.29;}.cls-37{fill:#757272;opacity:.71;}.cls-38{fill:#807d7d;opacity:.63;}.cls-39{fill:#585757;opacity:.92;}.cls-59{fill:#0f497d;}.cls-40{fill:#c5c2c2;opacity:.24;}.cls-41{fill:#908c8c;opacity:.53;}.cls-42{fill:#d5d2d2;opacity:.16;}.cls-43{fill:#787474;opacity:.69;}.cls-44{fill:#8a8686;opacity:.57;}.cls-45{fill:#878383;opacity:.59;}.cls-46{fill:#726f6f;opacity:.73;}.cls-47{fill:#e6e5e4;opacity:.08;}.cls-48{fill:#5a5959;opacity:.9;}.cls-49{fill:#f0efef;opacity:.04;}.cls-50{fill:#979393;opacity:.49;}.cls-51{fill:#7e7a7a;opacity:.65;}.cls-52{fill:#9a9696;opacity:.47;}.cls-60{clip-path:url(#clippath);}.cls-53{fill:#e2e0df;opacity:.1;}</style><clipPath id="clippath"><path class="cls-1" d="M87.63,13.07C44.87,13.07,10.21,47.74,10.21,90.5s34.66,77.42,77.42,77.42,77.42-34.66,77.42-77.42S130.39,13.07,87.63,13.07Z"/></clipPath><linearGradient id="linear-gradient" x1="32.89" y1="35.75" x2="142.38" y2="145.24" gradientUnits="userSpaceOnUse"><stop offset=".1" stop-color="#0f497d"/><stop offset=".32" stop-color="#124a7c"/><stop offset=".5" stop-color="#1c4e7b"/><stop offset=".66" stop-color="#2c5479"/><stop offset=".81" stop-color="#445e76"/><stop offset=".96" stop-color="#626972"/><stop offset="1" stop-color="#6d6e71"/></linearGradient><linearGradient id="linear-gradient-2" x1="42.11" y1="44.97" x2="133.16" y2="136.02" gradientUnits="userSpaceOnUse"><stop offset="0" stop-color="#fff"/><stop offset=".45" stop-color="#e6e7e8"/><stop offset="1" stop-color="#a7a9ac"/></linearGradient></defs><g class="cls-56"><g id="Layer_1"><g class="cls-60"><path class="cls-57" d="M87.63,13.07C44.87,13.07,10.21,47.74,10.21,90.5s34.66,77.42,77.42,77.42,77.42-34.66,77.42-77.42S130.39,13.07,87.63,13.07Z"/><g class="cls-58"><circle class="cls-4" cx="134.49" cy="142.19" r="62.53"/><circle class="cls-9" cx="133.64" cy="141.25" r="62.53"/><circle class="cls-49" cx="132.78" cy="140.32" r="62.53"/><circle class="cls-21" cx="131.93" cy="139.38" r="62.53"/><circle class="cls-47" cx="131.08" cy="138.44" r="62.53"/><circle class="cls-53" cx="130.23" cy="137.5" r="62.53"/><circle class="cls-13" cx="129.38" cy="136.56" r="62.53"/><circle class="cls-12" cx="128.53" cy="135.63" r="62.53"/><circle class="cls-42" cx="127.68" cy="134.69" r="62.53"/><circle class="cls-19" cx="126.83" cy="133.75" r="62.53"/><circle class="cls-15" cx="125.98" cy="132.81" r="62.53"/><circle class="cls-29" cx="125.13" cy="131.88" r="62.53"/><circle class="cls-40" cx="124.28" cy="130.94" r="62.53"/><circle class="cls-3" cx="123.42" cy="130" r="62.53"/><circle class="cls-25" cx="122.57" cy="129.06" r="62.53"/><circle class="cls-36" cx="121.72" cy="128.12" r="62.53"/><circle class="cls-27" cx="120.87" cy="127.19" r="62.53"/><circle class="cls-2" cx="120.02" cy="126.25" r="62.53"/><circle class="cls-26" cx="119.17" cy="125.31" r="62.53"/><circle class="cls-14" cx="118.32" cy="124.37" r="62.53"/><circle class="cls-16" cx="117.47" cy="123.44" r="62.53"/><circle class="cls-20" cx="116.62" cy="122.5" r="62.53"/><circle class="cls-7" cx="115.77" cy="121.56" r="62.53"/><circle class="cls-23" cx="114.91" cy="120.62" r="62.53"/><circle class="cls-52" cx="114.06" cy="119.68" r="62.53"/><circle class="cls-50" cx="113.21" cy="118.75" r="62.53"/><circle class="cls-34" cx="112.36" cy="117.81" r="62.53"/><circle class="cls-41" cx="111.51" cy="116.87" r="62.53"/><circle class="cls-10" cx="110.66" cy="115.93" r="62.53"/><circle class="cls-44" cx="109.81" cy="115" r="62.53"/><circle class="cls-45" cx="108.96" cy="114.06" r="62.53"/><circle class="cls-32" cx="108.11" cy="113.12" r="62.53"/><circle class="cls-38" cx="107.26" cy="112.18" r="62.53"/><circle class="cls-51" cx="106.41" cy="111.24" r="62.53"/><circle class="cls-31" cx="105.55" cy="110.31" r="62.53"/><circle class="cls-43" cx="104.7" cy="109.37" r="62.53"/><circle class="cls-37" cx="103.85" cy="108.43" r="62.53"/><circle class="cls-46" cx="103" cy="107.49" r="62.53"/><circle class="cls-35" cx="102.15" cy="106.56" r="62.53"/><circle class="cls-11" cx="101.3" cy="105.62" r="62.53"/><circle class="cls-17" cx="100.45" cy="104.68" r="62.53"/><circle class="cls-28" cx="99.6" cy="103.74" r="62.53"/><circle class="cls-18" cx="98.75" cy="102.8" r="62.53"/><circle class="cls-5" cx="97.9" cy="101.87" r="62.53"/><circle class="cls-24" cx="97.04" cy="100.93" r="62.53"/><circle class="cls-6" cx="96.19" cy="99.99" r="62.53"/><circle class="cls-48" cx="95.34" cy="99.05" r="62.53"/><circle class="cls-39" cx="94.49" cy="98.12" r="62.53"/><circle class="cls-30" cx="93.64" cy="97.18" r="62.53"/><circle class="cls-22" cx="92.79" cy="96.24" r="62.53"/><circle class="cls-33" cx="91.94" cy="95.3" r="62.53"/><circle class="cls-8" cx="91.09" cy="94.36" r="62.53"/></g><circle class="cls-55" cx="87.63" cy="90.5" r="64.38"/><circle class="cls-54" cx="87.63" cy="90.5" r="58.5"/><circle class="cls-1" cx="87.67" cy="90.5" r="64.42"/></g><path class="cls-59" d="M59.02,104.08c.77,1.25,1.91,2.22,3.27,2.79l9.75,4.06c.9.37,1.49,1.25,1.48,2.23v6.75c0,1.26,1.02,2.28,2.28,2.28h7.98c1.26,0,2.28-1.02,2.28-2.28v-16.71c0-2.76-1.89-5.17-4.58-5.79l-13.39-3.14c-1.87-.43-3.74.71-4.22,2.57h0s-4.94-6.45-4.94-6.45c-.63-.79-1.59-1.25-2.6-1.24-.66,0-1.3.19-1.84.56-1.48.98-1.92,2.95-1.01,4.46l5.55,9.93ZM55.76,91.58c.17-.11.36-.17.56-.16.31,0,.6.14.8.37l5.94,7.76c.46.56,1.09.96,1.79,1.14l1.54.38h.03s11.37,2.86,11.37,2.86c.09.02.19.03.28.03.63,0,1.14-.51,1.14-1.14,0-.52-.36-.98-.86-1.1l-11.38-2.85h-.02c-.3-.08-.56-.27-.72-.54-.36-.58-.18-1.33.4-1.69.19-.12.41-.18.63-.18.1,0,.19.01.29.04l13.4,3.14c1.66.39,2.83,1.87,2.83,3.58v16.71h-7.98v-6.75c0-1.9-1.14-3.61-2.89-4.33l-9.74-4.06c-.9-.37-1.66-1.02-2.18-1.84l-5.55-9.92c-.29-.49-.15-1.12.33-1.42Z"/><path class="cls-59" d="M119.93,89.7c-1.45-.94-3.37-.63-4.47.7l-4.93,6.44v-.02c-.39-1.56-1.79-2.66-3.4-2.66-.27,0-.54.03-.81.1l-13.41,3.15c-2.69.63-4.59,3.03-4.59,5.79v16.71c0,1.26,1.02,2.28,2.28,2.28h7.98c1.26,0,2.28-1.02,2.28-2.28v-6.75c0-.98.58-1.86,1.48-2.23l9.75-4.06c1.37-.57,2.52-1.56,3.29-2.83l5.5-9.84c.95-1.51.52-3.51-.97-4.5ZM118.93,93.05l-5.5,9.84c-.52.84-1.29,1.5-2.2,1.89l-9.74,4.06c-1.75.72-2.9,2.44-2.89,4.33v6.75h-7.98v-16.71c0-1.71,1.16-3.19,2.82-3.58l13.42-3.15c.09-.02.18-.03.27-.03.68,0,1.22.56,1.22,1.24,0,.22-.06.44-.18.63-.16.27-.42.46-.72.54h-.02l-11.38,2.85c-.61.14-1,.75-.86,1.36.12.53.59.9,1.13.89.09,0,.19-.01.28-.03l11.37-2.85h.03s1.54-.39,1.54-.39c.72-.18,1.35-.59,1.81-1.16l5.9-7.71c.2-.25.5-.39.83-.4.2,0,.4.06.57.17.48.32.61.98.29,1.46h0Z"/><path class="cls-59" d="M87.18,53.8c-.75,0-1.41.48-1.65,1.19-1.32,4-3.79,6.89-6.17,9.69-3.13,3.67-6.36,7.47-6.92,13.62-.37,4.17.95,8.31,3.68,11.48,2.58,3.01,6.28,4.84,10.24,5.04.28.01.56.02.83.02,3.82.02,7.5-1.45,10.27-4.08,2.91-2.73,4.56-6.55,4.55-10.54,0-7.31-3.56-11.49-7.01-15.54-2.38-2.8-4.84-5.69-6.17-9.69-.24-.71-.91-1.19-1.66-1.19ZM99.73,80.21c0,3.37-1.38,6.59-3.84,8.89-2.52,2.4-5.93,3.65-9.41,3.44-3.34-.18-6.47-1.72-8.64-4.26-2.32-2.7-3.45-6.23-3.14-9.78.49-5.43,3.35-8.79,6.38-12.35,2.51-2.67,4.57-5.73,6.09-9.07,1.52,3.34,3.57,6.4,6.09,9.07,3.32,3.9,6.46,7.59,6.46,14.06Z"/><path class="cls-59" d="M85.31,86.92c-1.29-.48-2.44-1.27-3.36-2.29-.73-.81-1.31-1.75-1.71-2.76-.23-.59-.89-.87-1.48-.64s-.87.89-.64,1.48c.5,1.26,1.22,2.43,2.13,3.44,1.17,1.3,2.63,2.3,4.27,2.91.58.24,1.25-.03,1.49-.61.24-.58-.03-1.25-.61-1.49-.03-.01-.06-.02-.09-.03h0Z"/></g></g></svg>